Coordinates
nRows=10
nColumns=34

# SIMM Motion File Header:
name Coordinates
datacolumns 34
datarows 10
otherdata 1
range 0.58699999999999997000 0.59599999999999997000

Units are S.I. units (second, meters, Newtons, ...)
Angles are in degrees.

endheader
time	pelvis_tz	pelvis_tx	pelvis_ty	pelvis_tilt	pelvis_list	pelvis_rotation	hip_flexion_r	hip_adduction_r	hip_rotation_r	knee_r_tx	knee_r_ty	knee_angle_r	tib_pat_r_tx	tib_pat_r_ty	tib_pat_r_r1	ankle_angle_r	subtalar_angle_r	mtp_angle_r	hip_flexion_l	hip_adduction_l	hip_rotation_l	knee_l_tx	knee_l_ty	knee_angle_l	tib_pat_l_tx	tib_pat_l_ty	tib_pat_l_r1	ankle_angle_l	subtalar_angle_l	mtp_angle_l	lumbar_extension	lumbar_bending	lumbar_rotation
      0.58699999999999997000	     -0.26567572328775108000	      0.43019471614738941000	      0.88532416578329587000	     -0.59107872227758673000	      0.94873846715200283000	     -3.71836603976977150000	    -13.82646784561476000000	      2.18571128276597900000	     16.31410178395458700000	     -0.00170753649523084090	     -0.41463510582818719000	    -17.00514603215507500000	      0.04429679098639361500	     -0.02058940627705640700	     12.64523268509756100000	     20.71767041148000400000	     -0.00000000000002725808	     -0.00000000000037194287	     22.51456393751333700000	      1.06850197367810410000	     -5.43505442972214680000	     -0.00382803359905533720	     -0.41364780947868268000	     -6.65832130099198680000	      0.04579935879938978900	     -0.02103053977805955200	      6.69384135198226460000	     -5.14375086092289280000	      0.00000000000016104976	     -0.00000000000019952952	     -6.21413796279445490000	      1.96753377368838130000	      4.65490323535190060000
      0.58799999999999997000	     -0.26576061651624489000	      0.43144221488853152000	      0.88530044073955794000	     -0.59621588159366912000	      1.00177020850451440000	     -3.69685667721916330000	    -13.81846136483499300000	      2.14596976941183120000	     16.25507013175832300000	     -0.00167092421044065320	     -0.41465302884768140000	    -17.16676627016367700000	      0.04427469186292772000	     -0.02058394819403321800	     12.70403684603460100000	     20.60847618396157800000	     -0.00000000000002743292	     -0.00000000000037318776	     22.51180726615272600000	      1.13218910522142350000	     -5.42757804058695830000	     -0.00380887365383388240	     -0.41365784055147081000	     -6.77688845059351760000	      0.04578151323408506000	     -0.02102460059155649600	      6.79017227324569280000	     -5.18207708641537930000	      0.00000000000016174595	     -0.00000000000020073456	     -6.18465089414517790000	      1.88767765792498190000	      4.65858585158075570000
      0.58899999999999997000	     -0.26584550974473870000	      0.43268971362967362000	      0.88527671569582012000	     -0.60135304090975139000	      1.05480194985702580000	     -3.67534731466855470000	    -13.81045488405522900000	      2.10622825605768370000	     16.19603847956206300000	     -0.00163431192565046540	     -0.41467095186717567000	    -17.32838650817227900000	      0.04425259273946182500	     -0.02057849011101002900	     12.76284100697164300000	     20.49928195644315600000	     -0.00000000000002760776	     -0.00000000000037443265	     22.50905059479211100000	      1.19587623676474310000	     -5.42010165145176970000	     -0.00378971370861242800	     -0.41366787162425889000	     -6.89545560019504840000	      0.04576366766878032400	     -0.02101866140505344000	      6.88650319450912200000	     -5.22040331190786590000	      0.00000000000016244213	     -0.00000000000020193959	     -6.15516382549590000000	      1.80782154216158260000	      4.66226846780961160000
      0.58999999999999997000	     -0.26593345085315723000	      0.43394157979442277000	      0.88525943790640560000	     -0.60699466385748291000	      1.10771302417987780000	     -3.65230359098907090000	    -13.80042712501873200000	      2.06656367665954480000	     16.13456994506189400000	     -0.00159729891013434250	     -0.41468929897656182000	    -17.49223307116821900000	      0.04423011049321443800	     -0.02057297324504554800	     12.82101292472010800000	     20.37453283029978800000	     -0.00000000000002778251	     -0.00000000000037566264	     22.50590409625977600000	      1.25995496602473690000	     -5.41170799541190290000	     -0.00377024501154334980	     -0.41367798527339061000	     -7.01448132763010080000	      0.04574558250422282300	     -0.02101266006168862900	      6.98191980716825980000	     -5.25645213088455690000	      0.00000000000016313752	     -0.00000000000020317836	     -6.12459727863429300000	      1.72828156349249080000	      4.66464034445974110000
      0.59099999999999997000	     -0.26602240792155063000	      0.43519490176704090000	      0.88524430920176578000	     -0.61280444134909673000	      1.16058387615951040000	     -3.62874841359996350000	    -13.78972560656332600000	      2.02692474191340820000	     16.07228911646042500000	     -0.00156015231770957520	     -0.41470778744924536000	    -17.65682174249326800000	      0.04420750053937321600	     -0.02056743678476730100	     12.87897409473905000000	     20.24459873794812000000	     -0.00000000000002795723	     -0.00000000000037688767	     22.50262765533686600000	      1.32416422785695520000	     -5.40300858373714470000	     -0.00375067339719173080	     -0.41368812644797009000	     -7.13365991434299310000	      0.04572741747324773200	     -0.02100663799936990100	      7.07703165029263650000	     -5.29174181435598450000	      0.00000000000016383264	     -0.00000000000020442837	     -6.09367090570191120000	      1.64884696385483440000	      4.66657530791696470000
      0.59199999999999997000	     -0.26611422875990526000	      0.43645251743897967000	      0.88523555057402636000	     -0.61900356504243570000	      1.21351526579461800000	     -3.60385609574409750000	    -13.77707040407831600000	      1.98708959694839820000	     16.00772266034563500000	     -0.00152263530091061900	     -0.41472671919465565000	    -17.82367165381397800000	      0.04418447886515283800	     -0.02056183379329993100	     12.93627094517394300000	     20.10193691994888700000	     -0.00000000000002813887	     -0.00000000000037804047	     22.49871286656881600000	      1.38889726253152700000	     -5.39363294178008970000	     -0.00373085022920218240	     -0.41369831868418222000	     -7.25292199192223120000	      0.04570909693652607700	     -0.02100058325346446100	      7.17093171697759590000	     -5.32449428761100570000	      0.00000000000016443608	     -0.00000000000020568498	     -6.06181752815760880000	      1.56950448068456150000	      4.66733647866615260000
      0.59299999999999997000	     -0.26620700418824700000	      0.43771156434402531000	      0.88522891530525394000	     -0.62533247080301646000	      1.26646683464821730000	     -3.57851806439931060000	    -13.76376397358343500000	      1.94718904857709660000	     15.94239432839307300000	     -0.00148499480932026650	     -0.41474579869764150000	    -17.99127531179991000000	      0.04416131995080607700	     -0.02055620862476952000	     12.99334635574748600000	     19.95503252673378500000	     -0.00000000000002832281	     -0.00000000000037916920	     22.49458529518572200000	      1.45380488815355060000	     -5.38403188972893520000	     -0.00371094320999999090	     -0.41370852794093854000	     -7.37221189979025130000	      0.04569072456455557100	     -0.02099451761303011700	      7.26442785818274840000	     -5.35640102412722200000	      0.00000000000016500897	     -0.00000000000020694379	     -6.02965514907599950000	      1.49019270300341590000	      4.66770638517932830000
      0.59399999999999997000	     -0.26630076527019114000	      0.43897215986856086000	      0.88522461879667391000	     -0.63173915019611138000	      1.31949431547547040000	     -3.55275443505414310000	    -13.74978166489263600000	      1.90714087223034000000	     15.87630303549720900000	     -0.00144722116570488850	     -0.41476505440568051000	    -18.15976844737660300000	      0.04413799158659920100	     -0.02055055432250452500	     13.05017679921806800000	     19.80512044900343600000	     -0.00000000000002851409	     -0.00000000000038026231	     22.49009081316664500000	      1.51894508372159390000	     -5.37427195368631330000	     -0.00369097360196357900	     -0.41371874019543392000	     -7.49134804487665920000	      0.04567233387376584000	     -0.02098845333093343400	      7.35733862122299430000	     -5.38728226986270900000	      0.00000000000016556781	     -0.00000000000020819647	     -5.99723585542733770000	      1.41084702868251590000	      4.66768664891729570000
      0.59499999999999997000	     -0.26639748331294255000	      0.44023740125156591000	      0.88522733856867120000	     -0.63837915048674854000	      1.37274953222368470000	     -3.52571401170783230000	    -13.73377172161408300000	      1.86664981195721770000	     15.80792285977144100000	     -0.00140904806601443260	     -0.41478483872887895000	    -18.33093001572558500000	      0.04411415487281201300	     -0.02054481261903576300	     13.10627234137977100000	     19.64618531772733300000	     -0.00000000000002872733	     -0.00000000000038124858	     22.48449559923962600000	      1.58478298912769700000	     -5.36403536566928900000	     -0.00367081622742450800	     -0.41372896144314653000	     -7.61002290161823410000	      0.04565388822651843300	     -0.02098239312384972800	      7.44849324976851790000	     -5.41508704325600650000	      0.00000000000016608452	     -0.00000000000020943077	     -5.96404581807752000000	      1.33139966444235220000	      4.66649798432963970000
      0.59599999999999997000	     -0.26649420135569396000	      0.44150264263457090000	      0.88523005834066848000	     -0.64501915077738570000	      1.42600474897189900000	     -3.49867358836152140000	    -13.71776177833552900000	      1.82615875168409540000	     15.73954268404567400000	     -0.00137087496632397700	     -0.41480462305207733000	    -18.50209158407456700000	      0.04409031815902482400	     -0.02053907091556700000	     13.16236788354147400000	     19.48725018645122700000	     -0.00000000000002894058	     -0.00000000000038223486	     22.47890038531260300000	      1.65062089453380010000	     -5.35379877765226550000	     -0.00365065885288543650	     -0.41373918269085913000	     -7.72869775835980820000	      0.04563544257927102500	     -0.02097633291676602100	      7.53964787831404150000	     -5.44289181664930320000	      0.00000000000016660122	     -0.00000000000021066506	     -5.93085578072770230000	      1.25195230020218840000	      4.66530931974198460000
